<svg width="75" height="17" viewBox="0 0 75 17" fill="none" xmlns="http://www.w3.org/2000/svg">
<path d="M11.776 7.464H2.008L4.632 10.088L3.992 10.712L0.24 6.96L3.992 3.208L4.632 3.832L2.008 6.456H11.776V7.464ZM22.5627 12.24C21.6934 12.24 20.9574 12.0453 20.3547 11.656C19.7521 11.2667 19.2934 10.7307 18.9787 10.048C18.6694 9.36 18.5094 8.57067 18.4987 7.68C18.5094 6.77333 18.6747 5.97867 18.9947 5.296C19.3147 4.608 19.7761 4.07467 20.3787 3.696C20.9814 3.312 21.7121 3.12 22.5707 3.12C23.4454 3.12 24.2054 3.33333 24.8507 3.76C25.5014 4.18667 25.9467 4.77067 26.1867 5.512L25.0347 5.88C24.8321 5.36267 24.5094 4.96267 24.0667 4.68C23.6294 4.392 23.1281 4.248 22.5627 4.248C21.9281 4.248 21.4027 4.39467 20.9867 4.688C20.5707 4.976 20.2614 5.37867 20.0587 5.896C19.8561 6.41333 19.7521 7.008 19.7467 7.68C19.7574 8.71467 19.9974 9.54667 20.4667 10.176C20.9361 10.8 21.6347 11.112 22.5627 11.112C23.1494 11.112 23.6481 10.9787 24.0587 10.712C24.4747 10.44 24.7894 10.0453 25.0027 9.528L26.1867 9.88C25.8667 10.648 25.3974 11.2347 24.7787 11.64C24.1601 12.04 23.4214 12.24 22.5627 12.24ZM34.3981 12V7.592C34.3981 7.112 34.3528 6.672 34.2621 6.272C34.1715 5.86667 34.0248 5.51467 33.8221 5.216C33.6248 4.912 33.3661 4.67733 33.0461 4.512C32.7315 4.34667 32.3475 4.264 31.8941 4.264C31.4781 4.264 31.1101 4.336 30.7901 4.48C30.4755 4.624 30.2088 4.832 29.9901 5.104C29.7768 5.37067 29.6141 5.696 29.5021 6.08C29.3901 6.464 29.3341 6.90133 29.3341 7.392L28.5021 7.208C28.5021 6.32267 28.6568 5.57867 28.9661 4.976C29.2755 4.37333 29.7021 3.91733 30.2461 3.608C30.7901 3.29867 31.4141 3.144 32.1181 3.144C32.6355 3.144 33.0861 3.224 33.4701 3.384C33.8595 3.544 34.1875 3.76 34.4541 4.032C34.7261 4.304 34.9448 4.616 35.1101 4.968C35.2755 5.31467 35.3955 5.68533 35.4701 6.08C35.5448 6.46933 35.5821 6.85867 35.5821 7.248V12H34.3981ZM28.1501 12V0.48H29.2141V6.984H29.3341V12H28.1501ZM40.4501 12.24C39.7995 12.24 39.2528 12.1227 38.8101 11.888C38.3728 11.6533 38.0448 11.3413 37.8261 10.952C37.6075 10.5627 37.4981 10.1387 37.4981 9.68C37.4981 9.21067 37.5915 8.81067 37.7781 8.48C37.9701 8.144 38.2288 7.86933 38.5541 7.656C38.8848 7.44267 39.2661 7.28 39.6981 7.168C40.1355 7.06133 40.6181 6.968 41.1461 6.888C41.6795 6.80267 42.1995 6.73067 42.7061 6.672C43.2181 6.608 43.6661 6.54667 44.0501 6.488L43.6341 6.744C43.6501 5.89067 43.4848 5.25867 43.1381 4.848C42.7915 4.43733 42.1888 4.232 41.3301 4.232C40.7381 4.232 40.2368 4.36533 39.8261 4.632C39.4208 4.89867 39.1355 5.32 38.9701 5.896L37.8261 5.56C38.0235 4.78667 38.4208 4.18667 39.0181 3.76C39.6155 3.33333 40.3915 3.12 41.3461 3.12C42.1355 3.12 42.8048 3.26933 43.3541 3.568C43.9088 3.86133 44.3008 4.288 44.5301 4.848C44.6368 5.09867 44.7061 5.37867 44.7381 5.688C44.7701 5.99733 44.7861 6.312 44.7861 6.632V12H43.7381V9.832L44.0421 9.96C43.7488 10.7013 43.2928 11.2667 42.6741 11.656C42.0555 12.0453 41.3141 12.24 40.4501 12.24ZM40.5861 11.224C41.1355 11.224 41.6155 11.1253 42.0261 10.928C42.4368 10.7307 42.7675 10.4613 43.0181 10.12C43.2688 9.77333 43.4315 9.384 43.5061 8.952C43.5701 8.67467 43.6048 8.37067 43.6101 8.04C43.6155 7.704 43.6181 7.45333 43.6181 7.288L44.0661 7.52C43.6661 7.57333 43.2315 7.62667 42.7621 7.68C42.2981 7.73333 41.8395 7.79467 41.3861 7.864C40.9381 7.93333 40.5328 8.016 40.1701 8.112C39.9248 8.18133 39.6875 8.28 39.4581 8.408C39.2288 8.53067 39.0395 8.696 38.8901 8.904C38.7461 9.112 38.6741 9.37067 38.6741 9.68C38.6741 9.93067 38.7355 10.1733 38.8581 10.408C38.9861 10.6427 39.1888 10.8373 39.4661 10.992C39.7488 11.1467 40.1221 11.224 40.5861 11.224ZM53.4287 12V7.592C53.4287 7.112 53.3834 6.672 53.2927 6.272C53.2021 5.86667 53.0554 5.51467 52.8527 5.216C52.6554 4.912 52.3967 4.67733 52.0767 4.512C51.7621 4.34667 51.3781 4.264 50.9247 4.264C50.5087 4.264 50.1407 4.336 49.8207 4.48C49.5061 4.624 49.2394 4.832 49.0207 5.104C48.8074 5.37067 48.6447 5.696 48.5327 6.08C48.4207 6.464 48.3647 6.90133 48.3647 7.392L47.5327 7.208C47.5327 6.32267 47.6874 5.57867 47.9967 4.976C48.3061 4.37333 48.7327 3.91733 49.2767 3.608C49.8207 3.29867 50.4447 3.144 51.1487 3.144C51.6661 3.144 52.1167 3.224 52.5007 3.384C52.8901 3.544 53.2181 3.76 53.4847 4.032C53.7567 4.304 53.9754 4.616 54.1407 4.968C54.3061 5.31467 54.4261 5.68533 54.5007 6.08C54.5754 6.46933 54.6127 6.85867 54.6127 7.248V12H53.4287ZM47.1807 12V3.36H48.2447V5.488H48.3647V12H47.1807ZM60.4407 16.08C59.9981 16.08 59.5607 16.0133 59.1287 15.88C58.7021 15.752 58.3074 15.5467 57.9447 15.264C57.5821 14.9867 57.2781 14.624 57.0327 14.176L58.0967 13.584C58.3367 14.064 58.6727 14.408 59.1047 14.616C59.5421 14.8293 59.9874 14.936 60.4407 14.936C61.0647 14.936 61.5687 14.8187 61.9527 14.584C62.3421 14.3547 62.6247 14.0133 62.8007 13.56C62.9767 13.1067 63.0621 12.5413 63.0567 11.864V9.56H63.1927V3.36H64.2407V11.88C64.2407 12.1253 64.2327 12.36 64.2167 12.584C64.2061 12.8133 64.1821 13.0373 64.1447 13.256C64.0434 13.9013 63.8327 14.432 63.5127 14.848C63.1981 15.264 62.7821 15.5733 62.2647 15.776C61.7527 15.9787 61.1447 16.08 60.4407 16.08ZM60.3607 12.24C59.5554 12.24 58.8674 12.04 58.2967 11.64C57.7261 11.2347 57.2887 10.688 56.9847 10C56.6807 9.312 56.5287 8.536 56.5287 7.672C56.5287 6.81333 56.6781 6.04 56.9767 5.352C57.2807 4.664 57.7154 4.12 58.2807 3.72C58.8461 3.32 59.5234 3.12 60.3127 3.12C61.1234 3.12 61.8061 3.31733 62.3607 3.712C62.9154 4.10667 63.3341 4.648 63.6167 5.336C63.9047 6.01867 64.0487 6.79733 64.0487 7.672C64.0487 8.53067 63.9074 9.30667 63.6247 10C63.3421 10.688 62.9261 11.2347 62.3767 11.64C61.8274 12.04 61.1554 12.24 60.3607 12.24ZM60.4807 11.144C61.0941 11.144 61.6007 10.9947 62.0007 10.696C62.4007 10.3973 62.6994 9.98667 62.8967 9.464C63.0941 8.936 63.1927 8.33867 63.1927 7.672C63.1927 6.99467 63.0941 6.39733 62.8967 5.88C62.6994 5.35733 62.4007 4.94933 62.0007 4.656C61.6061 4.36267 61.1074 4.216 60.5047 4.216C59.8861 4.216 59.3741 4.368 58.9687 4.672C58.5634 4.976 58.2621 5.38933 58.0647 5.912C57.8727 6.43467 57.7767 7.02133 57.7767 7.672C57.7767 8.328 57.8754 8.92 58.0727 9.448C58.2754 9.97067 58.5767 10.384 58.9767 10.688C59.3767 10.992 59.8781 11.144 60.4807 11.144ZM70.4535 12.24C69.6108 12.24 68.8802 12.0533 68.2615 11.68C67.6482 11.3067 67.1708 10.7813 66.8295 10.104C66.4882 9.42667 66.3175 8.632 66.3175 7.72C66.3175 6.776 66.4855 5.96 66.8215 5.272C67.1575 4.584 67.6295 4.05333 68.2375 3.68C68.8508 3.30667 69.5735 3.12 70.4055 3.12C71.2588 3.12 71.9868 3.31733 72.5895 3.712C73.1922 4.10133 73.6482 4.66133 73.9575 5.392C74.2668 6.12267 74.4082 6.99467 74.3815 8.008H73.1815V7.592C73.1602 6.472 72.9175 5.62667 72.4535 5.056C71.9948 4.48533 71.3228 4.2 70.4375 4.2C69.5095 4.2 68.7975 4.50133 68.3015 5.104C67.8108 5.70667 67.5655 6.56533 67.5655 7.68C67.5655 8.768 67.8108 9.61333 68.3015 10.216C68.7975 10.8133 69.4988 11.112 70.4055 11.112C71.0242 11.112 71.5628 10.9707 72.0215 10.688C72.4855 10.4 72.8508 9.98667 73.1175 9.448L74.2135 9.872C73.8722 10.624 73.3682 11.208 72.7015 11.624C72.0402 12.0347 71.2908 12.24 70.4535 12.24ZM67.1495 8.008V7.024H73.7495V8.008H67.1495Z" fill="black"/>
<path d="M-2 13H75.0295V13.4H-2V13Z" fill="black"/>
</svg>
